<?xml version="1.0" encoding="utf-8" standalone="no"?>
<!DOCTYPE svg PUBLIC "-//W3C//DTD SVG 1.1//EN"
  "http://www.w3.org/Graphics/SVG/1.1/DTD/svg11.dtd">
<svg xmlns:xlink="http://www.w3.org/1999/xlink" width="460.8pt" height="345.6pt" viewBox="0 0 460.8 345.6" xmlns="http://www.w3.org/2000/svg" version="1.1">
 <metadata>
  <rdf:RDF xmlns:dc="http://purl.org/dc/elements/1.1/" xmlns:cc="http://creativecommons.org/ns#" xmlns:rdf="http://www.w3.org/1999/02/22-rdf-syntax-ns#">
   <cc:Work>
    <dc:type rdf:resource="http://purl.org/dc/dcmitype/StillImage"/>
    <dc:date>2024-11-25T14:47:18.607495</dc:date>
    <dc:format>image/svg+xml</dc:format>
    <dc:creator>
     <cc:Agent>
      <dc:title>Matplotlib v3.9.1, https://matplotlib.org/</dc:title>
     </cc:Agent>
    </dc:creator>
   </cc:Work>
  </rdf:RDF>
 </metadata>
 <defs>
  <style type="text/css">*{stroke-linejoin: round; stroke-linecap: butt}</style>
 </defs>
 <g id="figure_1">
  <g id="patch_1">
   <path d="M 0 345.6 
L 460.8 345.6 
L 460.8 0 
L 0 0 
L 0 345.6 
z
" style="fill: none"/>
  </g>
  <g id="axes_1">
   <g id="patch_2">
    <path d="M 49.155488 301.264 
L 451.08 301.264 
L 451.08 9.72 
L 49.155488 9.72 
L 49.155488 301.264 
z
" style="fill: none"/>
   </g>
   <g id="PolyCollection_1">
    <defs>
     <path id="md004da16f5" d="M 67.424784 -94.464099 
L 67.424784 -81.726424 
L 71.115551 -83.944757 
L 74.806317 -86.055578 
L 78.497084 -88.528292 
L 82.187851 -91.060219 
L 85.878618 -93.566891 
L 89.569385 -96.187463 
L 93.260152 -98.9935 
L 96.950919 -101.973955 
L 100.641686 -104.745559 
L 104.332452 -107.276751 
L 108.023219 -110.016709 
L 111.713986 -112.735685 
L 115.404753 -115.774919 
L 119.09552 -118.582273 
L 122.786287 -121.215722 
L 126.477054 -123.617187 
L 130.167821 -126.079588 
L 133.858587 -128.666505 
L 137.549354 -131.270074 
L 141.240121 -133.935259 
L 144.930888 -136.562122 
L 148.621655 -138.840614 
L 152.312422 -141.273857 
L 156.003189 -143.624355 
L 159.693955 -146.197953 
L 163.384722 -148.675984 
L 167.075489 -151.187532 
L 170.766256 -153.631767 
L 174.457023 -156.105378 
L 178.14779 -158.592531 
L 181.838557 -161.0694 
L 185.529324 -163.273504 
L 189.22009 -165.498239 
L 192.910857 -167.773046 
L 196.601624 -169.96931 
L 200.292391 -172.240053 
L 203.983158 -174.309848 
L 207.673925 -176.416136 
L 211.364692 -178.427314 
L 215.055459 -180.532033 
L 218.746225 -182.607124 
L 222.436992 -184.703177 
L 226.127759 -186.781659 
L 229.818526 -188.963617 
L 233.509293 -191.119892 
L 237.20006 -193.133472 
L 240.890827 -195.236503 
L 244.581594 -197.340802 
L 248.27236 -199.430283 
L 251.963127 -201.596205 
L 255.653894 -203.753103 
L 259.344661 -205.855363 
L 263.035428 -208.026441 
L 266.726195 -210.191894 
L 270.416962 -212.50194 
L 274.107729 -214.713168 
L 277.798495 -216.868084 
L 281.489262 -219.307128 
L 285.180029 -221.734339 
L 288.870796 -224.6396 
L 292.561563 -227.316163 
L 296.25233 -230.113198 
L 299.943097 -232.807149 
L 303.633863 -235.467669 
L 307.32463 -238.458765 
L 311.015397 -240.669412 
L 314.706164 -243.052585 
L 318.396931 -245.394696 
L 322.087698 -247.841139 
L 325.778465 -250.425428 
L 329.469232 -253.16987 
L 333.159998 -255.907145 
L 336.850765 -258.659133 
L 340.541532 -261.813976 
L 344.232299 -264.165048 
L 347.923066 -267.020021 
L 351.613833 -270.277508 
L 355.3046 -272.370611 
L 358.995367 -274.964 
L 362.686133 -276.910416 
L 366.3769 -278.789225 
L 370.067667 -280.489637 
L 373.758434 -282.254272 
L 377.449201 -284.510682 
L 381.139968 -286.41626 
L 384.830735 -288.602947 
L 388.521502 -290.771237 
L 392.212268 -292.933621 
L 395.903035 -307.355238 
L 399.593802 -308.865919 
L 403.284569 -310.417345 
L 406.975336 -311.948203 
L 410.666103 -313.442294 
L 414.35687 -314.911949 
L 418.047637 -316.410131 
L 421.738403 -317.944295 
L 425.42917 -319.516011 
L 429.119937 -321.090081 
L 432.810704 -322.628 
L 432.810704 -322.628 
L 432.810704 -322.628 
L 429.119937 -321.090081 
L 425.42917 -319.516011 
L 421.738403 -317.944295 
L 418.047637 -316.410131 
L 414.35687 -314.911949 
L 410.666103 -313.442294 
L 406.975336 -311.948203 
L 403.284569 -310.417345 
L 399.593802 -308.865919 
L 395.903035 -307.355238 
L 392.212268 -304.599229 
L 388.521502 -301.220549 
L 384.830735 -298.599361 
L 381.139968 -295.785301 
L 377.449201 -292.876292 
L 373.758434 -290.273683 
L 370.067667 -287.847705 
L 366.3769 -285.650124 
L 362.686133 -283.521991 
L 358.995367 -281.655912 
L 355.3046 -279.672541 
L 351.613833 -277.75438 
L 347.923066 -274.832487 
L 344.232299 -271.622178 
L 340.541532 -268.629302 
L 336.850765 -266.091756 
L 333.159998 -263.633264 
L 329.469232 -261.07503 
L 325.778465 -258.63588 
L 322.087698 -256.564236 
L 318.396931 -254.609911 
L 314.706164 -252.76274 
L 311.015397 -250.76334 
L 307.32463 -248.615276 
L 303.633863 -245.231286 
L 299.943097 -241.899748 
L 296.25233 -238.770574 
L 292.561563 -235.780409 
L 288.870796 -232.905826 
L 285.180029 -230.350703 
L 281.489262 -227.771493 
L 277.798495 -225.095119 
L 274.107729 -222.553461 
L 270.416962 -220.094079 
L 266.726195 -217.761145 
L 263.035428 -215.395571 
L 259.344661 -213.120316 
L 255.653894 -210.895769 
L 251.963127 -208.769571 
L 248.27236 -206.694311 
L 244.581594 -204.639151 
L 240.890827 -202.540836 
L 237.20006 -200.571679 
L 233.509293 -198.548901 
L 229.818526 -196.59033 
L 226.127759 -194.562661 
L 222.436992 -192.544723 
L 218.746225 -190.5589 
L 215.055459 -188.519966 
L 211.364692 -186.526458 
L 207.673925 -184.534631 
L 203.983158 -182.487016 
L 200.292391 -180.412226 
L 196.601624 -178.274502 
L 192.910857 -176.105148 
L 189.22009 -173.978514 
L 185.529324 -171.839614 
L 181.838557 -169.595318 
L 178.14779 -167.368915 
L 174.457023 -165.148039 
L 170.766256 -162.914329 
L 167.075489 -160.742452 
L 163.384722 -158.462202 
L 159.693955 -156.216701 
L 156.003189 -153.88823 
L 152.312422 -151.589841 
L 148.621655 -149.138691 
L 144.930888 -146.710856 
L 141.240121 -144.157498 
L 137.549354 -141.749861 
L 133.858587 -139.384168 
L 130.167821 -136.91579 
L 126.477054 -134.306449 
L 122.786287 -131.849217 
L 119.09552 -129.460335 
L 115.404753 -127.017522 
L 111.713986 -124.393552 
L 108.023219 -121.791762 
L 104.332452 -119.242159 
L 100.641686 -116.62331 
L 96.950919 -114.094108 
L 93.260152 -111.56843 
L 89.569385 -108.885772 
L 85.878618 -106.16136 
L 82.187851 -103.704156 
L 78.497084 -101.272573 
L 74.806317 -98.844585 
L 71.115551 -96.609991 
L 67.424784 -94.464099 
z
" style="stroke: #1f77b4; stroke-opacity: 0.4; stroke-width: 0.3"/>
    </defs>
    <g clip-path="url(#p216e70788f)">
     <use xlink:href="#md004da16f5" x="0" y="345.6" style="fill: #1f77b4; fill-opacity: 0.4; stroke: #1f77b4; stroke-opacity: 0.4; stroke-width: 0.3"/>
    </g>
   </g>
   <g id="PolyCollection_2">
    <defs>
     <path id="m310db89a30" d="M 67.424784 -66.688736 
L 67.424784 -57.588 
L 71.115551 -59.236027 
L 74.806317 -60.869625 
L 78.497084 -62.561798 
L 82.187851 -64.151715 
L 85.878618 -65.833779 
L 89.569385 -67.797457 
L 93.260152 -69.613207 
L 96.950919 -71.827525 
L 100.641686 -74.284714 
L 104.332452 -77.088054 
L 108.023219 -80.073833 
L 111.713986 -83.234912 
L 115.404753 -86.57712 
L 119.09552 -90.075802 
L 122.786287 -93.980179 
L 126.477054 -97.855313 
L 130.167821 -101.715524 
L 133.858587 -105.455095 
L 137.549354 -109.141681 
L 141.240121 -112.734018 
L 144.930888 -116.346195 
L 148.621655 -119.859387 
L 152.312422 -123.553854 
L 156.003189 -127.402919 
L 159.693955 -130.942628 
L 163.384722 -134.25415 
L 167.075489 -137.517297 
L 170.766256 -140.78953 
L 174.457023 -144.157862 
L 178.14779 -147.302344 
L 181.838557 -150.490522 
L 185.529324 -153.785083 
L 189.22009 -156.908631 
L 192.910857 -160.254006 
L 196.601624 -163.583308 
L 200.292391 -166.853384 
L 203.983158 -170.070138 
L 207.673925 -173.29801 
L 211.364692 -176.409299 
L 215.055459 -179.381423 
L 218.746225 -182.28405 
L 222.436992 -185.188982 
L 226.127759 -188.042421 
L 229.818526 -190.815244 
L 233.509293 -193.507724 
L 237.20006 -196.206425 
L 240.890827 -198.822401 
L 244.581594 -201.374148 
L 248.27236 -203.87939 
L 251.963127 -206.285668 
L 255.653894 -208.613852 
L 259.344661 -210.865869 
L 263.035428 -213.080831 
L 266.726195 -215.191099 
L 270.416962 -217.31074 
L 274.107729 -219.435202 
L 277.798495 -221.585739 
L 281.489262 -223.568809 
L 285.180029 -225.599154 
L 288.870796 -227.555784 
L 292.561563 -229.414997 
L 296.25233 -231.338917 
L 299.943097 -233.126881 
L 303.633863 -234.989402 
L 307.32463 -236.744922 
L 311.015397 -238.444466 
L 314.706164 -240.112722 
L 318.396931 -241.934069 
L 322.087698 -243.518248 
L 325.778465 -245.163946 
L 329.469232 -246.718756 
L 333.159998 -248.277763 
L 336.850765 -249.791022 
L 340.541532 -251.361448 
L 344.232299 -252.76143 
L 347.923066 -254.136709 
L 351.613833 -255.436276 
L 355.3046 -256.891674 
L 358.995367 -258.389247 
L 362.686133 -259.907943 
L 366.3769 -261.411828 
L 370.067667 -262.949845 
L 373.758434 -264.351866 
L 377.449201 -265.574011 
L 381.139968 -266.850242 
L 384.830735 -268.213478 
L 388.521502 -269.67626 
L 392.212268 -271.158785 
L 395.903035 -283.880641 
L 399.593802 -284.764608 
L 403.284569 -285.623551 
L 406.975336 -286.470163 
L 410.666103 -287.321343 
L 414.35687 -288.145593 
L 418.047637 -288.915337 
L 421.738403 -289.632286 
L 425.42917 -290.320118 
L 429.119937 -290.976676 
L 432.810704 -291.629339 
L 432.810704 -291.629339 
L 432.810704 -291.629339 
L 429.119937 -290.976676 
L 425.42917 -290.320118 
L 421.738403 -289.632286 
L 418.047637 -288.915337 
L 414.35687 -288.145593 
L 410.666103 -287.321343 
L 406.975336 -286.470163 
L 403.284569 -285.623551 
L 399.593802 -284.764608 
L 395.903035 -283.880641 
L 392.212268 -275.884419 
L 388.521502 -275.078069 
L 384.830735 -274.265113 
L 381.139968 -272.496379 
L 377.449201 -270.790173 
L 373.758434 -269.118793 
L 370.067667 -268.072101 
L 366.3769 -266.997974 
L 362.686133 -265.907524 
L 358.995367 -264.800729 
L 355.3046 -263.667025 
L 351.613833 -262.512513 
L 347.923066 -259.558093 
L 344.232299 -257.447664 
L 340.541532 -255.604865 
L 336.850765 -253.876289 
L 333.159998 -252.093859 
L 329.469232 -250.333273 
L 325.778465 -248.626765 
L 322.087698 -246.85537 
L 318.396931 -245.170489 
L 314.706164 -243.530544 
L 311.015397 -241.961119 
L 307.32463 -240.222889 
L 303.633863 -238.064989 
L 299.943097 -236.020485 
L 296.25233 -233.876036 
L 292.561563 -231.846055 
L 288.870796 -229.796724 
L 285.180029 -227.821865 
L 281.489262 -225.863407 
L 277.798495 -223.9907 
L 274.107729 -222.055984 
L 270.416962 -220.104258 
L 266.726195 -218.137841 
L 263.035428 -216.177758 
L 259.344661 -214.118801 
L 255.653894 -212.045566 
L 251.963127 -209.878958 
L 248.27236 -207.68394 
L 244.581594 -205.429479 
L 240.890827 -203.14967 
L 237.20006 -200.816225 
L 233.509293 -198.37772 
L 229.818526 -195.866033 
L 226.127759 -193.333033 
L 222.436992 -190.737899 
L 218.746225 -188.137357 
L 215.055459 -185.505778 
L 211.364692 -182.87343 
L 207.673925 -180.170308 
L 203.983158 -177.460509 
L 200.292391 -174.591819 
L 196.601624 -171.621039 
L 192.910857 -168.634434 
L 189.22009 -165.585294 
L 185.529324 -162.482707 
L 181.838557 -159.35941 
L 178.14779 -156.294157 
L 174.457023 -153.210962 
L 170.766256 -150.160344 
L 167.075489 -146.997871 
L 163.384722 -143.899467 
L 159.693955 -140.929948 
L 156.003189 -137.833582 
L 152.312422 -134.736529 
L 148.621655 -131.462965 
L 144.930888 -128.024287 
L 141.240121 -124.519369 
L 137.549354 -121.162113 
L 133.858587 -117.744019 
L 130.167821 -114.265716 
L 126.477054 -110.701207 
L 122.786287 -107.149385 
L 119.09552 -103.606201 
L 115.404753 -99.930565 
L 111.713986 -96.371471 
L 108.023219 -93.10162 
L 104.332452 -89.941431 
L 100.641686 -87.096707 
L 96.950919 -84.527803 
L 93.260152 -82.087308 
L 89.569385 -79.725223 
L 85.878618 -77.347452 
L 82.187851 -75.157073 
L 78.497084 -73.000889 
L 74.806317 -70.850436 
L 71.115551 -68.687295 
L 67.424784 -66.688736 
z
" style="stroke: #d62728; stroke-opacity: 0.4; stroke-width: 0.3"/>
    </defs>
    <g clip-path="url(#p216e70788f)">
     <use xlink:href="#m310db89a30" x="0" y="345.6" style="fill: #d62728; fill-opacity: 0.4; stroke: #d62728; stroke-opacity: 0.4; stroke-width: 0.3"/>
    </g>
   </g>
   <g id="PolyCollection_3">
    <defs>
     <path id="m9298679b28" d="M 67.424784 -81.011851 
L 67.424784 -79.924175 
L 71.115551 -82.467774 
L 74.806317 -85.052792 
L 78.497084 -87.686142 
L 82.187851 -90.353927 
L 85.878618 -93.070486 
L 89.569385 -95.813954 
L 93.260152 -98.624693 
L 96.950919 -101.530997 
L 100.641686 -104.519327 
L 104.332452 -107.573356 
L 108.023219 -110.663522 
L 111.713986 -113.685241 
L 115.404753 -116.808201 
L 119.09552 -120.00391 
L 122.786287 -123.129 
L 126.477054 -126.221155 
L 130.167821 -129.18144 
L 133.858587 -132.06106 
L 137.549354 -134.889824 
L 141.240121 -137.665071 
L 144.930888 -140.363338 
L 148.621655 -142.960678 
L 152.312422 -145.482539 
L 156.003189 -147.89964 
L 159.693955 -150.285328 
L 163.384722 -152.727623 
L 167.075489 -155.216815 
L 170.766256 -157.685389 
L 174.457023 -160.153016 
L 178.14779 -162.648226 
L 181.838557 -165.132157 
L 185.529324 -167.483677 
L 189.22009 -169.939963 
L 192.910857 -172.348868 
L 196.601624 -174.764218 
L 200.292391 -177.133996 
L 203.983158 -179.427823 
L 207.673925 -181.678712 
L 211.364692 -183.943577 
L 215.055459 -186.213269 
L 218.746225 -188.450034 
L 222.436992 -190.63422 
L 226.127759 -192.758499 
L 229.818526 -194.851519 
L 233.509293 -196.851662 
L 237.20006 -198.766495 
L 240.890827 -200.668969 
L 244.581594 -202.565741 
L 248.27236 -204.468847 
L 251.963127 -206.382363 
L 255.653894 -208.299641 
L 259.344661 -210.193603 
L 263.035428 -212.055542 
L 266.726195 -213.914917 
L 270.416962 -215.775665 
L 274.107729 -217.619207 
L 277.798495 -219.445423 
L 281.489262 -221.255841 
L 285.180029 -223.045326 
L 288.870796 -224.804833 
L 292.561563 -226.52992 
L 296.25233 -228.206247 
L 299.943097 -229.855692 
L 303.633863 -231.489808 
L 307.32463 -233.124345 
L 311.015397 -234.607991 
L 314.706164 -236.089618 
L 318.396931 -237.569508 
L 322.087698 -239.016962 
L 325.778465 -240.530984 
L 329.469232 -241.964005 
L 333.159998 -243.399381 
L 336.850765 -244.812197 
L 340.541532 -246.223423 
L 344.232299 -247.620224 
L 347.923066 -249.02504 
L 351.613833 -250.495311 
L 355.3046 -251.784306 
L 358.995367 -253.075712 
L 362.686133 -254.37221 
L 366.3769 -255.653338 
L 370.067667 -256.943973 
L 373.758434 -258.242685 
L 377.449201 -259.54598 
L 381.139968 -260.858297 
L 384.830735 -262.171554 
L 388.521502 -263.402107 
L 392.212268 -264.653074 
L 395.903035 -266.439575 
L 399.593802 -267.623504 
L 403.284569 -268.803285 
L 406.975336 -269.997471 
L 410.666103 -271.195327 
L 414.35687 -272.388644 
L 418.047637 -273.58126 
L 421.738403 -274.768216 
L 425.42917 -275.962625 
L 429.119937 -277.17015 
L 432.810704 -278.375825 
L 432.810704 -278.375825 
L 432.810704 -278.375825 
L 429.119937 -277.17015 
L 425.42917 -275.962625 
L 421.738403 -274.768216 
L 418.047637 -273.58126 
L 414.35687 -272.388644 
L 410.666103 -271.195327 
L 406.975336 -269.997471 
L 403.284569 -268.803285 
L 399.593802 -267.623504 
L 395.903035 -266.439575 
L 392.212268 -265.250006 
L 388.521502 -264.014262 
L 384.830735 -262.802436 
L 381.139968 -261.528083 
L 377.449201 -260.235991 
L 373.758434 -258.962394 
L 370.067667 -257.686009 
L 366.3769 -256.415565 
L 362.686133 -255.188123 
L 358.995367 -253.962727 
L 355.3046 -252.692892 
L 351.613833 -251.415134 
L 347.923066 -249.940666 
L 344.232299 -248.522848 
L 340.541532 -247.083437 
L 336.850765 -245.684338 
L 333.159998 -244.329509 
L 329.469232 -242.892369 
L 325.778465 -241.447445 
L 322.087698 -240.047897 
L 318.396931 -238.646563 
L 314.706164 -237.179655 
L 311.015397 -235.703604 
L 307.32463 -234.234895 
L 303.633863 -232.542126 
L 299.943097 -230.830602 
L 296.25233 -229.109067 
L 292.561563 -227.387742 
L 288.870796 -225.618168 
L 285.180029 -223.822308 
L 281.489262 -222.017116 
L 277.798495 -220.188665 
L 274.107729 -218.328498 
L 270.416962 -216.453535 
L 266.726195 -214.552749 
L 263.035428 -212.670514 
L 259.344661 -210.783298 
L 255.653894 -208.892467 
L 251.963127 -206.977914 
L 248.27236 -205.072154 
L 244.581594 -203.176608 
L 240.890827 -201.286568 
L 237.20006 -199.392563 
L 233.509293 -197.480561 
L 229.818526 -195.511839 
L 226.127759 -193.517595 
L 222.436992 -191.419475 
L 218.746225 -189.28068 
L 215.055459 -187.054228 
L 211.364692 -184.733715 
L 207.673925 -182.436413 
L 203.983158 -180.200335 
L 200.292391 -177.951247 
L 196.601624 -175.59354 
L 192.910857 -173.216666 
L 189.22009 -170.813975 
L 185.529324 -168.401882 
L 181.838557 -166.018597 
L 178.14779 -163.64042 
L 174.457023 -161.136614 
L 170.766256 -158.639407 
L 167.075489 -156.171758 
L 163.384722 -153.671203 
L 159.693955 -151.140572 
L 156.003189 -148.767354 
L 152.312422 -146.369743 
L 148.621655 -143.888881 
L 144.930888 -141.285291 
L 141.240121 -138.539027 
L 137.549354 -135.726558 
L 133.858587 -132.931996 
L 130.167821 -130.084239 
L 126.477054 -127.119036 
L 122.786287 -123.969342 
L 119.09552 -120.72378 
L 115.404753 -117.470161 
L 111.713986 -114.387407 
L 108.023219 -111.409293 
L 104.332452 -108.418126 
L 100.641686 -105.523626 
L 96.950919 -102.6067 
L 93.260152 -99.702168 
L 89.569385 -96.846922 
L 85.878618 -94.110648 
L 82.187851 -91.414946 
L 78.497084 -88.76944 
L 74.806317 -86.135626 
L 71.115551 -83.544626 
L 67.424784 -81.011851 
z
" style="stroke: #9467bd; stroke-opacity: 0.4; stroke-width: 0.3"/>
    </defs>
    <g clip-path="url(#p216e70788f)">
     <use xlink:href="#m9298679b28" x="0" y="345.6" style="fill: #9467bd; fill-opacity: 0.4; stroke: #9467bd; stroke-opacity: 0.4; stroke-width: 0.3"/>
    </g>
   </g>
   <g id="matplotlib.axis_1">
    <g id="xtick_1">
     <g id="line2d_1">
      <defs>
       <path id="m20655031ae" d="M 0 0 
L 0 3.5 
" style="stroke: #000000; stroke-width: 0.8"/>
      </defs>
      <g>
       <use xlink:href="#m20655031ae" x="67.424784" y="301.264" style="stroke: #000000; stroke-width: 0.8"/>
      </g>
     </g>
     <g id="text_1">
      <!-- $\mathdefault{10^{3}}$ -->
      <g transform="translate(60.384784 314.34275) scale(0.08 -0.08)">
       <defs>
        <path id="DejaVuSans-31" d="M 794 531 
L 1825 531 
L 1825 4091 
L 703 3866 
L 703 4441 
L 1819 4666 
L 2450 4666 
L 2450 531 
L 3481 531 
L 3481 0 
L 794 0 
L 794 531 
z
" transform="scale(0.015625)"/>
        <path id="DejaVuSans-30" d="M 2034 4250 
Q 1547 4250 1301 3770 
Q 1056 3291 1056 2328 
Q 1056 1369 1301 889 
Q 1547 409 2034 409 
Q 2525 409 2770 889 
Q 3016 1369 3016 2328 
Q 3016 3291 2770 3770 
Q 2525 4250 2034 4250 
z
M 2034 4750 
Q 2819 4750 3233 4129 
Q 3647 3509 3647 2328 
Q 3647 1150 3233 529 
Q 2819 -91 2034 -91 
Q 1250 -91 836 529 
Q 422 1150 422 2328 
Q 422 3509 836 4129 
Q 1250 4750 2034 4750 
z
" transform="scale(0.015625)"/>
        <path id="DejaVuSans-33" d="M 2597 2516 
Q 3050 2419 3304 2112 
Q 3559 1806 3559 1356 
Q 3559 666 3084 287 
Q 2609 -91 1734 -91 
Q 1441 -91 1130 -33 
Q 819 25 488 141 
L 488 750 
Q 750 597 1062 519 
Q 1375 441 1716 441 
Q 2309 441 2620 675 
Q 2931 909 2931 1356 
Q 2931 1769 2642 2001 
Q 2353 2234 1838 2234 
L 1294 2234 
L 1294 2753 
L 1863 2753 
Q 2328 2753 2575 2939 
Q 2822 3125 2822 3475 
Q 2822 3834 2567 4026 
Q 2313 4219 1838 4219 
Q 1578 4219 1281 4162 
Q 984 4106 628 3988 
L 628 4550 
Q 988 4650 1302 4700 
Q 1616 4750 1894 4750 
Q 2613 4750 3031 4423 
Q 3450 4097 3450 3541 
Q 3450 3153 3228 2886 
Q 3006 2619 2597 2516 
z
" transform="scale(0.015625)"/>
       </defs>
       <use xlink:href="#DejaVuSans-31" transform="translate(0 0.765625)"/>
       <use xlink:href="#DejaVuSans-30" transform="translate(63.623047 0.765625)"/>
       <use xlink:href="#DejaVuSans-33" transform="translate(128.203125 39.046875) scale(0.7)"/>
      </g>
     </g>
    </g>
    <g id="xtick_2">
     <g id="line2d_2">
      <g>
       <use xlink:href="#m20655031ae" x="140.501968" y="301.264" style="stroke: #000000; stroke-width: 0.8"/>
      </g>
     </g>
     <g id="text_2">
      <!-- $\mathdefault{10^{4}}$ -->
      <g transform="translate(133.461968 314.34275) scale(0.08 -0.08)">
       <defs>
        <path id="DejaVuSans-34" d="M 2419 4116 
L 825 1625 
L 2419 1625 
L 2419 4116 
z
M 2253 4666 
L 3047 4666 
L 3047 1625 
L 3713 1625 
L 3713 1100 
L 3047 1100 
L 3047 0 
L 2419 0 
L 2419 1100 
L 313 1100 
L 313 1709 
L 2253 4666 
z
" transform="scale(0.015625)"/>
       </defs>
       <use xlink:href="#DejaVuSans-31" transform="translate(0 0.684375)"/>
       <use xlink:href="#DejaVuSans-30" transform="translate(63.623047 0.684375)"/>
       <use xlink:href="#DejaVuSans-34" transform="translate(128.203125 38.965625) scale(0.7)"/>
      </g>
     </g>
    </g>
    <g id="xtick_3">
     <g id="line2d_3">
      <g>
       <use xlink:href="#m20655031ae" x="213.579152" y="301.264" style="stroke: #000000; stroke-width: 0.8"/>
      </g>
     </g>
     <g id="text_3">
      <!-- $\mathdefault{10^{5}}$ -->
      <g transform="translate(206.539152 314.34275) scale(0.08 -0.08)">
       <defs>
        <path id="DejaVuSans-35" d="M 691 4666 
L 3169 4666 
L 3169 4134 
L 1269 4134 
L 1269 2991 
Q 1406 3038 1543 3061 
Q 1681 3084 1819 3084 
Q 2600 3084 3056 2656 
Q 3513 2228 3513 1497 
Q 3513 744 3044 326 
Q 2575 -91 1722 -91 
Q 1428 -91 1123 -41 
Q 819 9 494 109 
L 494 744 
Q 775 591 1075 516 
Q 1375 441 1709 441 
Q 2250 441 2565 725 
Q 2881 1009 2881 1497 
Q 2881 1984 2565 2268 
Q 2250 2553 1709 2553 
Q 1456 2553 1204 2497 
Q 953 2441 691 2322 
L 691 4666 
z
" transform="scale(0.015625)"/>
       </defs>
       <use xlink:href="#DejaVuSans-31" transform="translate(0 0.684375)"/>
       <use xlink:href="#DejaVuSans-30" transform="translate(63.623047 0.684375)"/>
       <use xlink:href="#DejaVuSans-35" transform="translate(128.203125 38.965625) scale(0.7)"/>
      </g>
     </g>
    </g>
    <g id="xtick_4">
     <g id="line2d_4">
      <g>
       <use xlink:href="#m20655031ae" x="286.656336" y="301.264" style="stroke: #000000; stroke-width: 0.8"/>
      </g>
     </g>
     <g id="text_4">
      <!-- $\mathdefault{10^{6}}$ -->
      <g transform="translate(279.616336 314.34275) scale(0.08 -0.08)">
       <defs>
        <path id="DejaVuSans-36" d="M 2113 2584 
Q 1688 2584 1439 2293 
Q 1191 2003 1191 1497 
Q 1191 994 1439 701 
Q 1688 409 2113 409 
Q 2538 409 2786 701 
Q 3034 994 3034 1497 
Q 3034 2003 2786 2293 
Q 2538 2584 2113 2584 
z
M 3366 4563 
L 3366 3988 
Q 3128 4100 2886 4159 
Q 2644 4219 2406 4219 
Q 1781 4219 1451 3797 
Q 1122 3375 1075 2522 
Q 1259 2794 1537 2939 
Q 1816 3084 2150 3084 
Q 2853 3084 3261 2657 
Q 3669 2231 3669 1497 
Q 3669 778 3244 343 
Q 2819 -91 2113 -91 
Q 1303 -91 875 529 
Q 447 1150 447 2328 
Q 447 3434 972 4092 
Q 1497 4750 2381 4750 
Q 2619 4750 2861 4703 
Q 3103 4656 3366 4563 
z
" transform="scale(0.015625)"/>
       </defs>
       <use xlink:href="#DejaVuSans-31" transform="translate(0 0.765625)"/>
       <use xlink:href="#DejaVuSans-30" transform="translate(63.623047 0.765625)"/>
       <use xlink:href="#DejaVuSans-36" transform="translate(128.203125 39.046875) scale(0.7)"/>
      </g>
     </g>
    </g>
    <g id="xtick_5">
     <g id="line2d_5">
      <g>
       <use xlink:href="#m20655031ae" x="359.73352" y="301.264" style="stroke: #000000; stroke-width: 0.8"/>
      </g>
     </g>
     <g id="text_5">
      <!-- $\mathdefault{10^{7}}$ -->
      <g transform="translate(352.69352 314.34275) scale(0.08 -0.08)">
       <defs>
        <path id="DejaVuSans-37" d="M 525 4666 
L 3525 4666 
L 3525 4397 
L 1831 0 
L 1172 0 
L 2766 4134 
L 525 4134 
L 525 4666 
z
" transform="scale(0.015625)"/>
       </defs>
       <use xlink:href="#DejaVuSans-31" transform="translate(0 0.684375)"/>
       <use xlink:href="#DejaVuSans-30" transform="translate(63.623047 0.684375)"/>
       <use xlink:href="#DejaVuSans-37" transform="translate(128.203125 38.965625) scale(0.7)"/>
      </g>
     </g>
    </g>
    <g id="xtick_6">
     <g id="line2d_6">
      <g>
       <use xlink:href="#m20655031ae" x="432.810704" y="301.264" style="stroke: #000000; stroke-width: 0.8"/>
      </g>
     </g>
     <g id="text_6">
      <!-- $\mathdefault{10^{8}}$ -->
      <g transform="translate(425.770704 314.34275) scale(0.08 -0.08)">
       <defs>
        <path id="DejaVuSans-38" d="M 2034 2216 
Q 1584 2216 1326 1975 
Q 1069 1734 1069 1313 
Q 1069 891 1326 650 
Q 1584 409 2034 409 
Q 2484 409 2743 651 
Q 3003 894 3003 1313 
Q 3003 1734 2745 1975 
Q 2488 2216 2034 2216 
z
M 1403 2484 
Q 997 2584 770 2862 
Q 544 3141 544 3541 
Q 544 4100 942 4425 
Q 1341 4750 2034 4750 
Q 2731 4750 3128 4425 
Q 3525 4100 3525 3541 
Q 3525 3141 3298 2862 
Q 3072 2584 2669 2484 
Q 3125 2378 3379 2068 
Q 3634 1759 3634 1313 
Q 3634 634 3220 271 
Q 2806 -91 2034 -91 
Q 1263 -91 848 271 
Q 434 634 434 1313 
Q 434 1759 690 2068 
Q 947 2378 1403 2484 
z
M 1172 3481 
Q 1172 3119 1398 2916 
Q 1625 2713 2034 2713 
Q 2441 2713 2670 2916 
Q 2900 3119 2900 3481 
Q 2900 3844 2670 4047 
Q 2441 4250 2034 4250 
Q 1625 4250 1398 4047 
Q 1172 3844 1172 3481 
z
" transform="scale(0.015625)"/>
       </defs>
       <use xlink:href="#DejaVuSans-31" transform="translate(0 0.765625)"/>
       <use xlink:href="#DejaVuSans-30" transform="translate(63.623047 0.765625)"/>
       <use xlink:href="#DejaVuSans-38" transform="translate(128.203125 39.046875) scale(0.7)"/>
      </g>
     </g>
    </g>
    <g id="xtick_7">
     <g id="line2d_7">
      <defs>
       <path id="md31aa9cfc9" d="M 0 0 
L 0 2 
" style="stroke: #000000; stroke-width: 0.6"/>
      </defs>
      <g>
       <use xlink:href="#md31aa9cfc9" x="51.212702" y="301.264" style="stroke: #000000; stroke-width: 0.6"/>
      </g>
     </g>
    </g>
    <g id="xtick_8">
     <g id="line2d_8">
      <g>
       <use xlink:href="#md31aa9cfc9" x="56.104985" y="301.264" style="stroke: #000000; stroke-width: 0.6"/>
      </g>
     </g>
    </g>
    <g id="xtick_9">
     <g id="line2d_9">
      <g>
       <use xlink:href="#md31aa9cfc9" x="60.342873" y="301.264" style="stroke: #000000; stroke-width: 0.6"/>
      </g>
     </g>
    </g>
    <g id="xtick_10">
     <g id="line2d_10">
      <g>
       <use xlink:href="#md31aa9cfc9" x="64.080955" y="301.264" style="stroke: #000000; stroke-width: 0.6"/>
      </g>
     </g>
    </g>
    <g id="xtick_11">
     <g id="line2d_11">
      <g>
       <use xlink:href="#md31aa9cfc9" x="89.423208" y="301.264" style="stroke: #000000; stroke-width: 0.6"/>
      </g>
     </g>
    </g>
    <g id="xtick_12">
     <g id="line2d_12">
      <g>
       <use xlink:href="#md31aa9cfc9" x="102.291461" y="301.264" style="stroke: #000000; stroke-width: 0.6"/>
      </g>
     </g>
    </g>
    <g id="xtick_13">
     <g id="line2d_13">
      <g>
       <use xlink:href="#md31aa9cfc9" x="111.421633" y="301.264" style="stroke: #000000; stroke-width: 0.6"/>
      </g>
     </g>
    </g>
    <g id="xtick_14">
     <g id="line2d_14">
      <g>
       <use xlink:href="#md31aa9cfc9" x="118.503543" y="301.264" style="stroke: #000000; stroke-width: 0.6"/>
      </g>
     </g>
    </g>
    <g id="xtick_15">
     <g id="line2d_15">
      <g>
       <use xlink:href="#md31aa9cfc9" x="124.289886" y="301.264" style="stroke: #000000; stroke-width: 0.6"/>
      </g>
     </g>
    </g>
    <g id="xtick_16">
     <g id="line2d_16">
      <g>
       <use xlink:href="#md31aa9cfc9" x="129.182169" y="301.264" style="stroke: #000000; stroke-width: 0.6"/>
      </g>
     </g>
    </g>
    <g id="xtick_17">
     <g id="line2d_17">
      <g>
       <use xlink:href="#md31aa9cfc9" x="133.420057" y="301.264" style="stroke: #000000; stroke-width: 0.6"/>
      </g>
     </g>
    </g>
    <g id="xtick_18">
     <g id="line2d_18">
      <g>
       <use xlink:href="#md31aa9cfc9" x="137.158139" y="301.264" style="stroke: #000000; stroke-width: 0.6"/>
      </g>
     </g>
    </g>
    <g id="xtick_19">
     <g id="line2d_19">
      <g>
       <use xlink:href="#md31aa9cfc9" x="162.500392" y="301.264" style="stroke: #000000; stroke-width: 0.6"/>
      </g>
     </g>
    </g>
    <g id="xtick_20">
     <g id="line2d_20">
      <g>
       <use xlink:href="#md31aa9cfc9" x="175.368646" y="301.264" style="stroke: #000000; stroke-width: 0.6"/>
      </g>
     </g>
    </g>
    <g id="xtick_21">
     <g id="line2d_21">
      <g>
       <use xlink:href="#md31aa9cfc9" x="184.498817" y="301.264" style="stroke: #000000; stroke-width: 0.6"/>
      </g>
     </g>
    </g>
    <g id="xtick_22">
     <g id="line2d_22">
      <g>
       <use xlink:href="#md31aa9cfc9" x="191.580727" y="301.264" style="stroke: #000000; stroke-width: 0.6"/>
      </g>
     </g>
    </g>
    <g id="xtick_23">
     <g id="line2d_23">
      <g>
       <use xlink:href="#md31aa9cfc9" x="197.36707" y="301.264" style="stroke: #000000; stroke-width: 0.6"/>
      </g>
     </g>
    </g>
    <g id="xtick_24">
     <g id="line2d_24">
      <g>
       <use xlink:href="#md31aa9cfc9" x="202.259353" y="301.264" style="stroke: #000000; stroke-width: 0.6"/>
      </g>
     </g>
    </g>
    <g id="xtick_25">
     <g id="line2d_25">
      <g>
       <use xlink:href="#md31aa9cfc9" x="206.497241" y="301.264" style="stroke: #000000; stroke-width: 0.6"/>
      </g>
     </g>
    </g>
    <g id="xtick_26">
     <g id="line2d_26">
      <g>
       <use xlink:href="#md31aa9cfc9" x="210.235323" y="301.264" style="stroke: #000000; stroke-width: 0.6"/>
      </g>
     </g>
    </g>
    <g id="xtick_27">
     <g id="line2d_27">
      <g>
       <use xlink:href="#md31aa9cfc9" x="235.577576" y="301.264" style="stroke: #000000; stroke-width: 0.6"/>
      </g>
     </g>
    </g>
    <g id="xtick_28">
     <g id="line2d_28">
      <g>
       <use xlink:href="#md31aa9cfc9" x="248.44583" y="301.264" style="stroke: #000000; stroke-width: 0.6"/>
      </g>
     </g>
    </g>
    <g id="xtick_29">
     <g id="line2d_29">
      <g>
       <use xlink:href="#md31aa9cfc9" x="257.576001" y="301.264" style="stroke: #000000; stroke-width: 0.6"/>
      </g>
     </g>
    </g>
    <g id="xtick_30">
     <g id="line2d_30">
      <g>
       <use xlink:href="#md31aa9cfc9" x="264.657911" y="301.264" style="stroke: #000000; stroke-width: 0.6"/>
      </g>
     </g>
    </g>
    <g id="xtick_31">
     <g id="line2d_31">
      <g>
       <use xlink:href="#md31aa9cfc9" x="270.444254" y="301.264" style="stroke: #000000; stroke-width: 0.6"/>
      </g>
     </g>
    </g>
    <g id="xtick_32">
     <g id="line2d_32">
      <g>
       <use xlink:href="#md31aa9cfc9" x="275.336537" y="301.264" style="stroke: #000000; stroke-width: 0.6"/>
      </g>
     </g>
    </g>
    <g id="xtick_33">
     <g id="line2d_33">
      <g>
       <use xlink:href="#md31aa9cfc9" x="279.574425" y="301.264" style="stroke: #000000; stroke-width: 0.6"/>
      </g>
     </g>
    </g>
    <g id="xtick_34">
     <g id="line2d_34">
      <g>
       <use xlink:href="#md31aa9cfc9" x="283.312507" y="301.264" style="stroke: #000000; stroke-width: 0.6"/>
      </g>
     </g>
    </g>
    <g id="xtick_35">
     <g id="line2d_35">
      <g>
       <use xlink:href="#md31aa9cfc9" x="308.65476" y="301.264" style="stroke: #000000; stroke-width: 0.6"/>
      </g>
     </g>
    </g>
    <g id="xtick_36">
     <g id="line2d_36">
      <g>
       <use xlink:href="#md31aa9cfc9" x="321.523014" y="301.264" style="stroke: #000000; stroke-width: 0.6"/>
      </g>
     </g>
    </g>
    <g id="xtick_37">
     <g id="line2d_37">
      <g>
       <use xlink:href="#md31aa9cfc9" x="330.653185" y="301.264" style="stroke: #000000; stroke-width: 0.6"/>
      </g>
     </g>
    </g>
    <g id="xtick_38">
     <g id="line2d_38">
      <g>
       <use xlink:href="#md31aa9cfc9" x="337.735096" y="301.264" style="stroke: #000000; stroke-width: 0.6"/>
      </g>
     </g>
    </g>
    <g id="xtick_39">
     <g id="line2d_39">
      <g>
       <use xlink:href="#md31aa9cfc9" x="343.521438" y="301.264" style="stroke: #000000; stroke-width: 0.6"/>
      </g>
     </g>
    </g>
    <g id="xtick_40">
     <g id="line2d_40">
      <g>
       <use xlink:href="#md31aa9cfc9" x="348.413721" y="301.264" style="stroke: #000000; stroke-width: 0.6"/>
      </g>
     </g>
    </g>
    <g id="xtick_41">
     <g id="line2d_41">
      <g>
       <use xlink:href="#md31aa9cfc9" x="352.651609" y="301.264" style="stroke: #000000; stroke-width: 0.6"/>
      </g>
     </g>
    </g>
    <g id="xtick_42">
     <g id="line2d_42">
      <g>
       <use xlink:href="#md31aa9cfc9" x="356.389691" y="301.264" style="stroke: #000000; stroke-width: 0.6"/>
      </g>
     </g>
    </g>
    <g id="xtick_43">
     <g id="line2d_43">
      <g>
       <use xlink:href="#md31aa9cfc9" x="381.731944" y="301.264" style="stroke: #000000; stroke-width: 0.6"/>
      </g>
     </g>
    </g>
    <g id="xtick_44">
     <g id="line2d_44">
      <g>
       <use xlink:href="#md31aa9cfc9" x="394.600198" y="301.264" style="stroke: #000000; stroke-width: 0.6"/>
      </g>
     </g>
    </g>
    <g id="xtick_45">
     <g id="line2d_45">
      <g>
       <use xlink:href="#md31aa9cfc9" x="403.730369" y="301.264" style="stroke: #000000; stroke-width: 0.6"/>
      </g>
     </g>
    </g>
    <g id="xtick_46">
     <g id="line2d_46">
      <g>
       <use xlink:href="#md31aa9cfc9" x="410.81228" y="301.264" style="stroke: #000000; stroke-width: 0.6"/>
      </g>
     </g>
    </g>
    <g id="xtick_47">
     <g id="line2d_47">
      <g>
       <use xlink:href="#md31aa9cfc9" x="416.598622" y="301.264" style="stroke: #000000; stroke-width: 0.6"/>
      </g>
     </g>
    </g>
    <g id="xtick_48">
     <g id="line2d_48">
      <g>
       <use xlink:href="#md31aa9cfc9" x="421.490905" y="301.264" style="stroke: #000000; stroke-width: 0.6"/>
      </g>
     </g>
    </g>
    <g id="xtick_49">
     <g id="line2d_49">
      <g>
       <use xlink:href="#md31aa9cfc9" x="425.728793" y="301.264" style="stroke: #000000; stroke-width: 0.6"/>
      </g>
     </g>
    </g>
    <g id="xtick_50">
     <g id="line2d_50">
      <g>
       <use xlink:href="#md31aa9cfc9" x="429.466875" y="301.264" style="stroke: #000000; stroke-width: 0.6"/>
      </g>
     </g>
    </g>
    <g id="text_7">
     <g id="patch_3">
      <path d="M 231.072275 336.495875 
L 269.163213 336.495875 
L 269.163213 317.0665 
L 231.072275 317.0665 
z
" style="fill: #ffffff"/>
     </g>
     <!-- Area -->
     <g transform="translate(234.012275 330.644312) scale(0.14 -0.14)">
      <defs>
       <path id="DejaVuSans-41" d="M 2188 4044 
L 1331 1722 
L 3047 1722 
L 2188 4044 
z
M 1831 4666 
L 2547 4666 
L 4325 0 
L 3669 0 
L 3244 1197 
L 1141 1197 
L 716 0 
L 50 0 
L 1831 4666 
z
" transform="scale(0.015625)"/>
       <path id="DejaVuSans-72" d="M 2631 2963 
Q 2534 3019 2420 3045 
Q 2306 3072 2169 3072 
Q 1681 3072 1420 2755 
Q 1159 2438 1159 1844 
L 1159 0 
L 581 0 
L 581 3500 
L 1159 3500 
L 1159 2956 
Q 1341 3275 1631 3429 
Q 1922 3584 2338 3584 
Q 2397 3584 2469 3576 
Q 2541 3569 2628 3553 
L 2631 2963 
z
" transform="scale(0.015625)"/>
       <path id="DejaVuSans-65" d="M 3597 1894 
L 3597 1613 
L 953 1613 
Q 991 1019 1311 708 
Q 1631 397 2203 397 
Q 2534 397 2845 478 
Q 3156 559 3463 722 
L 3463 178 
Q 3153 47 2828 -22 
Q 2503 -91 2169 -91 
Q 1331 -91 842 396 
Q 353 884 353 1716 
Q 353 2575 817 3079 
Q 1281 3584 2069 3584 
Q 2775 3584 3186 3129 
Q 3597 2675 3597 1894 
z
M 3022 2063 
Q 3016 2534 2758 2815 
Q 2500 3097 2075 3097 
Q 1594 3097 1305 2825 
Q 1016 2553 972 2059 
L 3022 2063 
z
" transform="scale(0.015625)"/>
       <path id="DejaVuSans-61" d="M 2194 1759 
Q 1497 1759 1228 1600 
Q 959 1441 959 1056 
Q 959 750 1161 570 
Q 1363 391 1709 391 
Q 2188 391 2477 730 
Q 2766 1069 2766 1631 
L 2766 1759 
L 2194 1759 
z
M 3341 1997 
L 3341 0 
L 2766 0 
L 2766 531 
Q 2569 213 2275 61 
Q 1981 -91 1556 -91 
Q 1019 -91 701 211 
Q 384 513 384 1019 
Q 384 1609 779 1909 
Q 1175 2209 1959 2209 
L 2766 2209 
L 2766 2266 
Q 2766 2663 2505 2880 
Q 2244 3097 1772 3097 
Q 1472 3097 1187 3025 
Q 903 2953 641 2809 
L 641 3341 
Q 956 3463 1253 3523 
Q 1550 3584 1831 3584 
Q 2591 3584 2966 3190 
Q 3341 2797 3341 1997 
z
" transform="scale(0.015625)"/>
      </defs>
      <use xlink:href="#DejaVuSans-41"/>
      <use xlink:href="#DejaVuSans-72" x="68.408203"/>
      <use xlink:href="#DejaVuSans-65" x="107.271484"/>
      <use xlink:href="#DejaVuSans-61" x="168.794922"/>
     </g>
    </g>
   </g>
   <g id="matplotlib.axis_2">
    <g id="ytick_1">
     <g id="line2d_51">
      <defs>
       <path id="ma48e999ac8" d="M 0 0 
L -3.5 0 
" style="stroke: #000000; stroke-width: 0.8"/>
      </defs>
      <g>
       <use xlink:href="#ma48e999ac8" x="49.155488" y="240.878097" style="stroke: #000000; stroke-width: 0.8"/>
      </g>
     </g>
     <g id="text_8">
      <!-- $\mathdefault{10^{2}}$ -->
      <g transform="translate(28.075488 243.917472) scale(0.08 -0.08)">
       <defs>
        <path id="DejaVuSans-32" d="M 1228 531 
L 3431 531 
L 3431 0 
L 469 0 
L 469 531 
Q 828 903 1448 1529 
Q 2069 2156 2228 2338 
Q 2531 2678 2651 2914 
Q 2772 3150 2772 3378 
Q 2772 3750 2511 3984 
Q 2250 4219 1831 4219 
Q 1534 4219 1204 4116 
Q 875 4013 500 3803 
L 500 4441 
Q 881 4594 1212 4672 
Q 1544 4750 1819 4750 
Q 2544 4750 2975 4387 
Q 3406 4025 3406 3419 
Q 3406 3131 3298 2873 
Q 3191 2616 2906 2266 
Q 2828 2175 2409 1742 
Q 1991 1309 1228 531 
z
" transform="scale(0.015625)"/>
       </defs>
       <use xlink:href="#DejaVuSans-31" transform="translate(0 0.765625)"/>
       <use xlink:href="#DejaVuSans-30" transform="translate(63.623047 0.765625)"/>
       <use xlink:href="#DejaVuSans-32" transform="translate(128.203125 39.046875) scale(0.7)"/>
      </g>
     </g>
    </g>
    <g id="ytick_2">
     <g id="line2d_52">
      <g>
       <use xlink:href="#ma48e999ac8" x="49.155488" y="105.557132" style="stroke: #000000; stroke-width: 0.8"/>
      </g>
     </g>
     <g id="text_9">
      <!-- $\mathdefault{10^{3}}$ -->
      <g transform="translate(28.075488 108.596507) scale(0.08 -0.08)">
       <use xlink:href="#DejaVuSans-31" transform="translate(0 0.765625)"/>
       <use xlink:href="#DejaVuSans-30" transform="translate(63.623047 0.765625)"/>
       <use xlink:href="#DejaVuSans-33" transform="translate(128.203125 39.046875) scale(0.7)"/>
      </g>
     </g>
    </g>
    <g id="ytick_3">
     <g id="line2d_53">
      <defs>
       <path id="m4fc160fee9" d="M 0 0 
L -2 0 
" style="stroke: #000000; stroke-width: 0.6"/>
      </defs>
      <g>
       <use xlink:href="#m4fc160fee9" x="49.155488" y="294.727723" style="stroke: #000000; stroke-width: 0.6"/>
      </g>
     </g>
    </g>
    <g id="ytick_4">
     <g id="line2d_54">
      <g>
       <use xlink:href="#m4fc160fee9" x="49.155488" y="281.613766" style="stroke: #000000; stroke-width: 0.6"/>
      </g>
     </g>
    </g>
    <g id="ytick_5">
     <g id="line2d_55">
      <g>
       <use xlink:href="#m4fc160fee9" x="49.155488" y="270.898884" style="stroke: #000000; stroke-width: 0.6"/>
      </g>
     </g>
    </g>
    <g id="ytick_6">
     <g id="line2d_56">
      <g>
       <use xlink:href="#m4fc160fee9" x="49.155488" y="261.839579" style="stroke: #000000; stroke-width: 0.6"/>
      </g>
     </g>
    </g>
    <g id="ytick_7">
     <g id="line2d_57">
      <g>
       <use xlink:href="#m4fc160fee9" x="49.155488" y="253.992053" style="stroke: #000000; stroke-width: 0.6"/>
      </g>
     </g>
    </g>
    <g id="ytick_8">
     <g id="line2d_58">
      <g>
       <use xlink:href="#m4fc160fee9" x="49.155488" y="247.070044" style="stroke: #000000; stroke-width: 0.6"/>
      </g>
     </g>
    </g>
    <g id="ytick_9">
     <g id="line2d_59">
      <g>
       <use xlink:href="#m4fc160fee9" x="49.155488" y="200.142427" style="stroke: #000000; stroke-width: 0.6"/>
      </g>
     </g>
    </g>
    <g id="ytick_10">
     <g id="line2d_60">
      <g>
       <use xlink:href="#m4fc160fee9" x="49.155488" y="176.313588" style="stroke: #000000; stroke-width: 0.6"/>
      </g>
     </g>
    </g>
    <g id="ytick_11">
     <g id="line2d_61">
      <g>
       <use xlink:href="#m4fc160fee9" x="49.155488" y="159.406758" style="stroke: #000000; stroke-width: 0.6"/>
      </g>
     </g>
    </g>
    <g id="ytick_12">
     <g id="line2d_62">
      <g>
       <use xlink:href="#m4fc160fee9" x="49.155488" y="146.292801" style="stroke: #000000; stroke-width: 0.6"/>
      </g>
     </g>
    </g>
    <g id="ytick_13">
     <g id="line2d_63">
      <g>
       <use xlink:href="#m4fc160fee9" x="49.155488" y="135.577918" style="stroke: #000000; stroke-width: 0.6"/>
      </g>
     </g>
    </g>
    <g id="ytick_14">
     <g id="line2d_64">
      <g>
       <use xlink:href="#m4fc160fee9" x="49.155488" y="126.518614" style="stroke: #000000; stroke-width: 0.6"/>
      </g>
     </g>
    </g>
    <g id="ytick_15">
     <g id="line2d_65">
      <g>
       <use xlink:href="#m4fc160fee9" x="49.155488" y="118.671088" style="stroke: #000000; stroke-width: 0.6"/>
      </g>
     </g>
    </g>
    <g id="ytick_16">
     <g id="line2d_66">
      <g>
       <use xlink:href="#m4fc160fee9" x="49.155488" y="111.749079" style="stroke: #000000; stroke-width: 0.6"/>
      </g>
     </g>
    </g>
    <g id="ytick_17">
     <g id="line2d_67">
      <g>
       <use xlink:href="#m4fc160fee9" x="49.155488" y="64.821462" style="stroke: #000000; stroke-width: 0.6"/>
      </g>
     </g>
    </g>
    <g id="ytick_18">
     <g id="line2d_68">
      <g>
       <use xlink:href="#m4fc160fee9" x="49.155488" y="40.992623" style="stroke: #000000; stroke-width: 0.6"/>
      </g>
     </g>
    </g>
    <g id="ytick_19">
     <g id="line2d_69">
      <g>
       <use xlink:href="#m4fc160fee9" x="49.155488" y="24.085792" style="stroke: #000000; stroke-width: 0.6"/>
      </g>
     </g>
    </g>
    <g id="ytick_20">
     <g id="line2d_70">
      <g>
       <use xlink:href="#m4fc160fee9" x="49.155488" y="10.971836" style="stroke: #000000; stroke-width: 0.6"/>
      </g>
     </g>
    </g>
    <g id="text_10">
     <g id="patch_4">
      <path d="M 27.015488 235.724031 
L 27.015488 75.259969 
L 7.586113 75.259969 
L 7.586113 235.724031 
z
" style="fill: #ffffff; opacity: 0.5"/>
     </g>
     <!-- Species Richness (SR) -->
     <g transform="translate(21.163925 232.784031) rotate(-90) scale(0.14 -0.14)">
      <defs>
       <path id="DejaVuSans-53" d="M 3425 4513 
L 3425 3897 
Q 3066 4069 2747 4153 
Q 2428 4238 2131 4238 
Q 1616 4238 1336 4038 
Q 1056 3838 1056 3469 
Q 1056 3159 1242 3001 
Q 1428 2844 1947 2747 
L 2328 2669 
Q 3034 2534 3370 2195 
Q 3706 1856 3706 1288 
Q 3706 609 3251 259 
Q 2797 -91 1919 -91 
Q 1588 -91 1214 -16 
Q 841 59 441 206 
L 441 856 
Q 825 641 1194 531 
Q 1563 422 1919 422 
Q 2459 422 2753 634 
Q 3047 847 3047 1241 
Q 3047 1584 2836 1778 
Q 2625 1972 2144 2069 
L 1759 2144 
Q 1053 2284 737 2584 
Q 422 2884 422 3419 
Q 422 4038 858 4394 
Q 1294 4750 2059 4750 
Q 2388 4750 2728 4690 
Q 3069 4631 3425 4513 
z
" transform="scale(0.015625)"/>
       <path id="DejaVuSans-70" d="M 1159 525 
L 1159 -1331 
L 581 -1331 
L 581 3500 
L 1159 3500 
L 1159 2969 
Q 1341 3281 1617 3432 
Q 1894 3584 2278 3584 
Q 2916 3584 3314 3078 
Q 3713 2572 3713 1747 
Q 3713 922 3314 415 
Q 2916 -91 2278 -91 
Q 1894 -91 1617 61 
Q 1341 213 1159 525 
z
M 3116 1747 
Q 3116 2381 2855 2742 
Q 2594 3103 2138 3103 
Q 1681 3103 1420 2742 
Q 1159 2381 1159 1747 
Q 1159 1113 1420 752 
Q 1681 391 2138 391 
Q 2594 391 2855 752 
Q 3116 1113 3116 1747 
z
" transform="scale(0.015625)"/>
       <path id="DejaVuSans-63" d="M 3122 3366 
L 3122 2828 
Q 2878 2963 2633 3030 
Q 2388 3097 2138 3097 
Q 1578 3097 1268 2742 
Q 959 2388 959 1747 
Q 959 1106 1268 751 
Q 1578 397 2138 397 
Q 2388 397 2633 464 
Q 2878 531 3122 666 
L 3122 134 
Q 2881 22 2623 -34 
Q 2366 -91 2075 -91 
Q 1284 -91 818 406 
Q 353 903 353 1747 
Q 353 2603 823 3093 
Q 1294 3584 2113 3584 
Q 2378 3584 2631 3529 
Q 2884 3475 3122 3366 
z
" transform="scale(0.015625)"/>
       <path id="DejaVuSans-69" d="M 603 3500 
L 1178 3500 
L 1178 0 
L 603 0 
L 603 3500 
z
M 603 4863 
L 1178 4863 
L 1178 4134 
L 603 4134 
L 603 4863 
z
" transform="scale(0.015625)"/>
       <path id="DejaVuSans-73" d="M 2834 3397 
L 2834 2853 
Q 2591 2978 2328 3040 
Q 2066 3103 1784 3103 
Q 1356 3103 1142 2972 
Q 928 2841 928 2578 
Q 928 2378 1081 2264 
Q 1234 2150 1697 2047 
L 1894 2003 
Q 2506 1872 2764 1633 
Q 3022 1394 3022 966 
Q 3022 478 2636 193 
Q 2250 -91 1575 -91 
Q 1294 -91 989 -36 
Q 684 19 347 128 
L 347 722 
Q 666 556 975 473 
Q 1284 391 1588 391 
Q 1994 391 2212 530 
Q 2431 669 2431 922 
Q 2431 1156 2273 1281 
Q 2116 1406 1581 1522 
L 1381 1569 
Q 847 1681 609 1914 
Q 372 2147 372 2553 
Q 372 3047 722 3315 
Q 1072 3584 1716 3584 
Q 2034 3584 2315 3537 
Q 2597 3491 2834 3397 
z
" transform="scale(0.015625)"/>
       <path id="DejaVuSans-20" transform="scale(0.015625)"/>
       <path id="DejaVuSans-52" d="M 2841 2188 
Q 3044 2119 3236 1894 
Q 3428 1669 3622 1275 
L 4263 0 
L 3584 0 
L 2988 1197 
Q 2756 1666 2539 1819 
Q 2322 1972 1947 1972 
L 1259 1972 
L 1259 0 
L 628 0 
L 628 4666 
L 2053 4666 
Q 2853 4666 3247 4331 
Q 3641 3997 3641 3322 
Q 3641 2881 3436 2590 
Q 3231 2300 2841 2188 
z
M 1259 4147 
L 1259 2491 
L 2053 2491 
Q 2509 2491 2742 2702 
Q 2975 2913 2975 3322 
Q 2975 3731 2742 3939 
Q 2509 4147 2053 4147 
L 1259 4147 
z
" transform="scale(0.015625)"/>
       <path id="DejaVuSans-68" d="M 3513 2113 
L 3513 0 
L 2938 0 
L 2938 2094 
Q 2938 2591 2744 2837 
Q 2550 3084 2163 3084 
Q 1697 3084 1428 2787 
Q 1159 2491 1159 1978 
L 1159 0 
L 581 0 
L 581 4863 
L 1159 4863 
L 1159 2956 
Q 1366 3272 1645 3428 
Q 1925 3584 2291 3584 
Q 2894 3584 3203 3211 
Q 3513 2838 3513 2113 
z
" transform="scale(0.015625)"/>
       <path id="DejaVuSans-6e" d="M 3513 2113 
L 3513 0 
L 2938 0 
L 2938 2094 
Q 2938 2591 2744 2837 
Q 2550 3084 2163 3084 
Q 1697 3084 1428 2787 
Q 1159 2491 1159 1978 
L 1159 0 
L 581 0 
L 581 3500 
L 1159 3500 
L 1159 2956 
Q 1366 3272 1645 3428 
Q 1925 3584 2291 3584 
Q 2894 3584 3203 3211 
Q 3513 2838 3513 2113 
z
" transform="scale(0.015625)"/>
       <path id="DejaVuSans-28" d="M 1984 4856 
Q 1566 4138 1362 3434 
Q 1159 2731 1159 2009 
Q 1159 1288 1364 580 
Q 1569 -128 1984 -844 
L 1484 -844 
Q 1016 -109 783 600 
Q 550 1309 550 2009 
Q 550 2706 781 3412 
Q 1013 4119 1484 4856 
L 1984 4856 
z
" transform="scale(0.015625)"/>
       <path id="DejaVuSans-29" d="M 513 4856 
L 1013 4856 
Q 1481 4119 1714 3412 
Q 1947 2706 1947 2009 
Q 1947 1309 1714 600 
Q 1481 -109 1013 -844 
L 513 -844 
Q 928 -128 1133 580 
Q 1338 1288 1338 2009 
Q 1338 2731 1133 3434 
Q 928 4138 513 4856 
z
" transform="scale(0.015625)"/>
      </defs>
      <use xlink:href="#DejaVuSans-53"/>
      <use xlink:href="#DejaVuSans-70" x="63.476562"/>
      <use xlink:href="#DejaVuSans-65" x="126.953125"/>
      <use xlink:href="#DejaVuSans-63" x="188.476562"/>
      <use xlink:href="#DejaVuSans-69" x="243.457031"/>
      <use xlink:href="#DejaVuSans-65" x="271.240234"/>
      <use xlink:href="#DejaVuSans-73" x="332.763672"/>
      <use xlink:href="#DejaVuSans-20" x="384.863281"/>
      <use xlink:href="#DejaVuSans-52" x="416.650391"/>
      <use xlink:href="#DejaVuSans-69" x="486.132812"/>
      <use xlink:href="#DejaVuSans-63" x="513.916016"/>
      <use xlink:href="#DejaVuSans-68" x="568.896484"/>
      <use xlink:href="#DejaVuSans-6e" x="632.275391"/>
      <use xlink:href="#DejaVuSans-65" x="695.654297"/>
      <use xlink:href="#DejaVuSans-73" x="757.177734"/>
      <use xlink:href="#DejaVuSans-73" x="809.277344"/>
      <use xlink:href="#DejaVuSans-20" x="861.376953"/>
      <use xlink:href="#DejaVuSans-28" x="893.164062"/>
      <use xlink:href="#DejaVuSans-53" x="932.177734"/>
      <use xlink:href="#DejaVuSans-52" x="995.654297"/>
      <use xlink:href="#DejaVuSans-29" x="1065.136719"/>
     </g>
    </g>
   </g>
   <g id="line2d_71">
    <path d="M 67.424784 256.842446 
L 71.115551 254.448748 
L 74.806317 252.055078 
L 78.497084 249.780371 
L 82.187851 247.571179 
L 85.878618 245.085155 
L 89.569385 242.566779 
L 93.260152 240.05869 
L 96.950919 237.371421 
L 100.641686 234.816371 
L 104.332452 232.131175 
L 108.023219 229.366953 
L 111.713986 226.55756 
L 115.404753 224.018225 
L 119.09552 221.431287 
L 122.786287 218.566265 
L 126.477054 215.86647 
L 130.167821 213.066943 
L 133.858587 210.527107 
L 137.549354 208.035777 
L 141.240121 205.373792 
L 144.930888 202.808646 
L 148.621655 200.218287 
L 152.312422 197.663369 
L 156.003189 195.175207 
L 159.693955 192.837895 
L 163.384722 190.402557 
L 167.075489 188.032487 
L 170.766256 185.629395 
L 174.457023 183.392886 
L 178.14779 180.974392 
L 181.838557 178.676255 
L 185.529324 176.474913 
L 189.22009 174.381519 
L 192.910857 172.23765 
L 196.601624 170.129344 
L 200.292391 168.072149 
L 203.983158 165.98652 
L 207.673925 164.020453 
L 211.364692 162.118627 
L 215.055459 160.174005 
L 218.746225 158.205393 
L 222.436992 156.276441 
L 226.127759 154.214877 
L 229.818526 152.236711 
L 233.509293 150.252013 
L 237.20006 148.222422 
L 240.890827 146.229636 
L 244.581594 144.27128 
L 248.27236 142.285847 
L 251.963127 140.262795 
L 255.653894 138.205552 
L 259.344661 136.137429 
L 263.035428 133.938097 
L 266.726195 131.568728 
L 270.416962 129.279591 
L 274.107729 127.022728 
L 277.798495 124.487975 
L 281.489262 121.936557 
L 285.180029 119.390644 
L 288.870796 116.716796 
L 292.561563 113.865958 
L 296.25233 110.905121 
L 299.943097 107.545266 
L 303.633863 104.241853 
L 307.32463 100.852485 
L 311.015397 98.813179 
L 314.706164 96.69271 
L 318.396931 94.608842 
L 322.087698 92.443979 
L 325.778465 90.314155 
L 329.469232 88.131076 
L 333.159998 85.680605 
L 336.850765 82.652445 
L 340.541532 80.225988 
L 344.232299 77.618249 
L 347.923066 74.447771 
L 351.613833 72.391255 
L 355.3046 70.61881 
L 358.995367 68.235173 
L 362.686133 66.085837 
L 366.3769 64.423157 
L 370.067667 61.65586 
L 373.758434 58.858965 
L 377.449201 56.407398 
L 381.139968 54.378845 
L 384.830735 52.219205 
L 388.521502 50.177988 
L 392.212268 48.091483 
L 395.903035 38.244763 
L 399.593802 36.73408 
L 403.284569 35.182655 
L 406.975336 33.651798 
L 410.666103 32.157706 
L 414.35687 30.68805 
L 418.047637 29.189868 
L 421.738403 27.655702 
L 425.42917 26.08399 
L 429.119937 24.50992 
L 432.810704 22.972002 
" clip-path="url(#p216e70788f)" style="fill: none; stroke: #1f77b4; stroke-width: 1.5; stroke-linecap: square"/>
   </g>
   <g id="line2d_72">
    <path d="M 67.424784 281.954822 
L 71.115551 280.099636 
L 74.806317 278.15042 
L 78.497084 276.117412 
L 82.187851 274.127923 
L 85.878618 272.124651 
L 89.569385 270.114954 
L 93.260152 268.0551 
L 96.950919 265.792329 
L 100.641686 263.301902 
L 104.332452 260.425115 
L 108.023219 257.327304 
L 111.713986 254.117788 
L 115.404753 250.582845 
L 119.09552 247.052441 
L 122.786287 243.388257 
L 126.477054 239.843917 
L 130.167821 236.308948 
L 133.858587 232.649604 
L 137.549354 229.02499 
L 141.240121 225.599335 
L 144.930888 222.130835 
L 148.621655 218.568928 
L 152.312422 215.161466 
L 156.003189 211.865108 
L 159.693955 208.659829 
L 163.384722 205.540138 
L 167.075489 202.369577 
L 170.766256 199.161296 
L 174.457023 196.040286 
L 178.14779 192.882616 
L 181.838557 189.781839 
L 185.529324 186.628377 
L 189.22009 183.362035 
L 192.910857 180.193826 
L 196.601624 177.050453 
L 200.292391 173.974278 
L 203.983158 170.938711 
L 207.673925 167.959637 
L 211.364692 165.113932 
L 215.055459 162.280487 
L 218.746225 159.54261 
L 222.436992 156.821043 
L 226.127759 154.192684 
L 229.818526 151.58875 
L 233.509293 149.061805 
L 237.20006 146.581941 
L 240.890827 144.06519 
L 244.581594 141.665418 
L 248.27236 139.351671 
L 251.963127 137.107982 
L 255.653894 134.894203 
L 259.344661 132.782026 
L 263.035428 130.744122 
L 266.726195 128.662542 
L 270.416962 126.657672 
L 274.107729 124.675889 
L 277.798495 122.691117 
L 281.489262 120.746517 
L 285.180029 118.879381 
L 288.870796 116.935009 
L 292.561563 115.070482 
L 296.25233 113.169768 
L 299.943097 111.340803 
L 303.633863 109.433168 
L 307.32463 107.548045 
L 311.015397 105.952283 
L 314.706164 104.26819 
L 318.396931 102.570235 
L 322.087698 100.88096 
L 325.778465 99.231332 
L 329.469232 97.571967 
L 333.159998 95.982597 
L 336.850765 94.338832 
L 340.541532 92.745228 
L 344.232299 91.259353 
L 347.923066 89.758088 
L 351.613833 88.025989 
L 355.3046 86.680036 
L 358.995367 85.079906 
L 362.686133 83.64954 
L 366.3769 82.099736 
L 370.067667 80.741447 
L 373.758434 79.54586 
L 377.449201 78.177284 
L 381.139968 76.587664 
L 384.830735 74.954797 
L 388.521502 73.747976 
L 392.212268 72.533753 
L 395.903035 61.719358 
L 399.593802 60.835386 
L 403.284569 59.976443 
L 406.975336 59.129835 
L 410.666103 58.278656 
L 414.35687 57.454405 
L 418.047637 56.684665 
L 421.738403 55.967715 
L 425.42917 55.279883 
L 429.119937 54.623326 
L 432.810704 53.970658 
" clip-path="url(#p216e70788f)" style="fill: none; stroke: #d62728; stroke-width: 1.5; stroke-linecap: square"/>
   </g>
   <g id="line2d_73">
    <path d="M 67.424784 264.977924 
L 71.115551 262.443155 
L 74.806317 259.878625 
L 78.497084 257.244215 
L 82.187851 254.603185 
L 85.878618 251.921208 
L 89.569385 249.195128 
L 93.260152 246.398861 
L 96.950919 243.466385 
L 100.641686 240.518554 
L 104.332452 237.544328 
L 108.023219 234.549475 
L 111.713986 231.479017 
L 115.404753 228.395725 
L 119.09552 225.224047 
L 122.786287 222.025517 
L 126.477054 218.864766 
L 130.167821 215.894636 
L 133.858587 213.049935 
L 137.549354 210.239695 
L 141.240121 207.461077 
L 144.930888 204.742365 
L 148.621655 202.143399 
L 152.312422 199.633883 
L 156.003189 197.235089 
L 159.693955 194.852971 
L 163.384722 192.392322 
L 167.075489 189.912234 
L 170.766256 187.43113 
L 174.457023 184.956303 
L 178.14779 182.41451 
L 181.838557 180.010893 
L 185.529324 177.645786 
L 189.22009 175.252704 
L 192.910857 172.858929 
L 196.601624 170.47019 
L 200.292391 168.092968 
L 203.983158 165.807555 
L 207.673925 163.54919 
L 211.364692 161.270167 
L 215.055459 158.98035 
L 218.746225 156.737004 
L 222.436992 154.573039 
L 226.127759 152.454427 
L 229.818526 150.395437 
L 233.509293 148.415785 
L 237.20006 146.510701 
L 240.890827 144.620529 
L 244.581594 142.723719 
L 248.27236 140.812953 
L 251.963127 138.898733 
L 255.653894 136.976665 
L 259.344661 135.067022 
L 263.035428 133.184102 
L 266.726195 131.321789 
L 270.416962 129.445399 
L 274.107729 127.586396 
L 277.798495 125.74375 
L 281.489262 123.928009 
L 285.180029 122.119941 
L 288.870796 120.347415 
L 292.561563 118.612322 
L 296.25233 116.929576 
L 299.943097 115.245545 
L 303.633863 113.582135 
L 307.32463 111.92694 
L 311.015397 110.420549 
L 314.706164 108.944694 
L 318.396931 107.49057 
L 322.087698 106.040473 
L 325.778465 104.61689 
L 329.469232 103.214457 
L 333.159998 101.825966 
L 336.850765 100.414877 
L 340.541532 99.026432 
L 344.232299 97.575775 
L 347.923066 96.182685 
L 351.613833 94.564276 
L 355.3046 93.262212 
L 358.995367 91.979801 
L 362.686133 90.689416 
L 366.3769 89.397623 
L 370.067667 88.180262 
L 373.758434 86.894947 
L 377.449201 85.674022 
L 381.139968 84.428752 
L 384.830735 83.202956 
L 388.521502 81.98296 
L 392.212268 80.762271 
L 395.903035 79.160426 
L 399.593802 77.976495 
L 403.284569 76.796718 
L 406.975336 75.602529 
L 410.666103 74.404675 
L 414.35687 73.211359 
L 418.047637 72.018739 
L 421.738403 70.831787 
L 425.42917 69.637374 
L 429.119937 68.429847 
L 432.810704 67.224172 
" clip-path="url(#p216e70788f)" style="fill: none; stroke: #9467bd; stroke-width: 1.5; stroke-linecap: square"/>
   </g>
   <g id="patch_5">
    <path d="M 49.155488 301.264 
L 49.155488 9.72 
" style="fill: none; stroke: #000000; stroke-width: 0.8; stroke-linejoin: miter; stroke-linecap: square"/>
   </g>
   <g id="patch_6">
    <path d="M 451.08 301.264 
L 451.08 9.72 
" style="fill: none; stroke: #000000; stroke-width: 0.8; stroke-linejoin: miter; stroke-linecap: square"/>
   </g>
   <g id="patch_7">
    <path d="M 49.155488 301.264 
L 451.08 301.264 
" style="fill: none; stroke: #000000; stroke-width: 0.8; stroke-linejoin: miter; stroke-linecap: square"/>
   </g>
   <g id="patch_8">
    <path d="M 49.155488 9.72 
L 451.08 9.72 
" style="fill: none; stroke: #000000; stroke-width: 0.8; stroke-linejoin: miter; stroke-linecap: square"/>
   </g>
  </g>
 </g>
 <defs>
  <clipPath id="p216e70788f">
   <rect x="49.155488" y="9.72" width="401.924512" height="291.544"/>
  </clipPath>
 </defs>
</svg>
